<svg width="32" height="32" viewBox="0 0 32 32" xmlns="http://www.w3.org/2000/svg">
  <circle cx="16" cy="16" r="15" fill="none" stroke="currentColor" stroke-width="2"/>
  <path d="M16 8c-3 0-5.5 2-6.5 4.8-.5 1.4-.5 2.8 0 4.2 1 2.8 3.5 4.8 6.5 4.8s5.5-2 6.5-4.8c.5-1.4.5-2.8 0-4.2C21.5 10 19 8 16 8zm0 11c-2.2 0-4-1.8-4-4s1.8-4 4-4 4 1.8 4 4-1.8 4-4 4z" fill="currentColor"/>
  <circle cx="16" cy="15" r="2" fill="currentColor"/>
  <path d="M11 15.5c.3-.8.7-1.5 1.2-2.1M19.8 17.6c-.3.8-.7 1.5-1.2 2.1" stroke="currentColor" stroke-width="1.5" stroke-linecap="round"/>
</svg>